<mxfile host="Electron" agent="Mozilla/5.0 (Macintosh; Intel Mac OS X 10_15_7) AppleWebKit/537.36 (KHTML, like Gecko) draw.io/26.2.15 Chrome/134.0.6998.205 Electron/35.2.1 Safari/537.36" version="26.2.15">
  <diagram name="Страница — 1" id="0X7pSB9gYVw4xyRIw8cY">
    <mxGraphModel dx="473" dy="366" grid="1" gridSize="10" guides="1" tooltips="1" connect="1" arrows="1" fold="1" page="1" pageScale="1" pageWidth="1654" pageHeight="1169" math="0" shadow="0">
      <root>
        <mxCell id="0" />
        <mxCell id="1" parent="0" />
        <mxCell id="4FEQCxbcR1wjujKz90j4-1" value="Двери" style="text;html=1;align=center;verticalAlign=middle;resizable=0;points=[];autosize=1;strokeColor=none;fillColor=none;fontSize=32;" parent="1" vertex="1">
          <mxGeometry x="210" y="90" width="120" height="50" as="geometry" />
        </mxCell>
        <mxCell id="4FEQCxbcR1wjujKz90j4-3" value="Двери закрыты" style="rounded=0;whiteSpace=wrap;html=1;" parent="1" vertex="1">
          <mxGeometry x="210" y="270" width="120" height="60" as="geometry" />
        </mxCell>
        <mxCell id="4FEQCxbcR1wjujKz90j4-4" value="" style="endArrow=classic;html=1;rounded=0;entryX=0.5;entryY=0;entryDx=0;entryDy=0;" parent="1" target="4FEQCxbcR1wjujKz90j4-3" edge="1">
          <mxGeometry width="50" height="50" relative="1" as="geometry">
            <mxPoint x="270" y="200" as="sourcePoint" />
            <mxPoint x="510" y="360" as="targetPoint" />
          </mxGeometry>
        </mxCell>
        <mxCell id="4FEQCxbcR1wjujKz90j4-6" value="Двери открыты" style="rounded=0;whiteSpace=wrap;html=1;" parent="1" vertex="1">
          <mxGeometry x="210" y="500" width="120" height="60" as="geometry" />
        </mxCell>
        <mxCell id="B_vPoJaLkvMbyIE2lBTQ-1" value="" style="endArrow=classic;html=1;rounded=0;exitX=1;exitY=0.5;exitDx=0;exitDy=0;entryX=0.5;entryY=0;entryDx=0;entryDy=0;" parent="1" source="4FEQCxbcR1wjujKz90j4-3" target="QnfNVXkz_dVnGW8w8GVg-4" edge="1">
          <mxGeometry width="50" height="50" relative="1" as="geometry">
            <mxPoint x="460" y="400" as="sourcePoint" />
            <mxPoint x="420" y="384.0000000000001" as="targetPoint" />
            <Array as="points">
              <mxPoint x="420" y="300" />
            </Array>
          </mxGeometry>
        </mxCell>
        <mxCell id="B_vPoJaLkvMbyIE2lBTQ-5" value="Открыть дверь" style="text;html=1;align=center;verticalAlign=middle;resizable=0;points=[];autosize=1;strokeColor=none;fillColor=none;" parent="1" vertex="1">
          <mxGeometry x="350" y="550" width="110" height="30" as="geometry" />
        </mxCell>
        <mxCell id="B_vPoJaLkvMbyIE2lBTQ-6" value="" style="endArrow=classic;html=1;rounded=0;exitX=0;exitY=0.5;exitDx=0;exitDy=0;entryX=0.46;entryY=0.983;entryDx=0;entryDy=0;entryPerimeter=0;" parent="1" source="4FEQCxbcR1wjujKz90j4-6" target="QnfNVXkz_dVnGW8w8GVg-1" edge="1">
          <mxGeometry width="50" height="50" relative="1" as="geometry">
            <mxPoint x="400" y="460" as="sourcePoint" />
            <mxPoint x="200" y="370" as="targetPoint" />
            <Array as="points">
              <mxPoint x="125" y="530" />
            </Array>
          </mxGeometry>
        </mxCell>
        <mxCell id="B_vPoJaLkvMbyIE2lBTQ-9" value="Закрыть дверь" style="text;html=1;align=center;verticalAlign=middle;resizable=0;points=[];autosize=1;strokeColor=none;fillColor=none;" parent="1" vertex="1">
          <mxGeometry x="70" y="260" width="110" height="30" as="geometry" />
        </mxCell>
        <mxCell id="TDdgVBHhZunSGMQm2uoK-5" value="Кабина" style="text;html=1;align=center;verticalAlign=middle;resizable=0;points=[];autosize=1;strokeColor=none;fillColor=none;fontSize=32;" parent="1" vertex="1">
          <mxGeometry x="745" y="90" width="130" height="50" as="geometry" />
        </mxCell>
        <mxCell id="TDdgVBHhZunSGMQm2uoK-6" value="Кабина разблокирована" style="rounded=0;whiteSpace=wrap;html=1;" parent="1" vertex="1">
          <mxGeometry x="750" y="260" width="120" height="60" as="geometry" />
        </mxCell>
        <mxCell id="OKDEQ-UufVDS76KuX0mW-1" value="Кабина заблокирована" style="rounded=0;whiteSpace=wrap;html=1;" parent="1" vertex="1">
          <mxGeometry x="890" y="440" width="120" height="60" as="geometry" />
        </mxCell>
        <mxCell id="OKDEQ-UufVDS76KuX0mW-2" value="Движение" style="rounded=0;whiteSpace=wrap;html=1;" parent="1" vertex="1">
          <mxGeometry x="610" y="440" width="120" height="60" as="geometry" />
        </mxCell>
        <mxCell id="OKDEQ-UufVDS76KuX0mW-3" value="" style="endArrow=classic;html=1;rounded=0;exitX=1;exitY=0.5;exitDx=0;exitDy=0;entryX=0.5;entryY=0;entryDx=0;entryDy=0;" parent="1" source="TDdgVBHhZunSGMQm2uoK-6" target="OKDEQ-UufVDS76KuX0mW-1" edge="1">
          <mxGeometry width="50" height="50" relative="1" as="geometry">
            <mxPoint x="810" y="510" as="sourcePoint" />
            <mxPoint x="860" y="460" as="targetPoint" />
            <Array as="points">
              <mxPoint x="950" y="290" />
            </Array>
          </mxGeometry>
        </mxCell>
        <mxCell id="OKDEQ-UufVDS76KuX0mW-4" value="" style="endArrow=classic;html=1;rounded=0;exitX=0;exitY=0.25;exitDx=0;exitDy=0;entryX=0.75;entryY=1;entryDx=0;entryDy=0;" parent="1" source="OKDEQ-UufVDS76KuX0mW-1" target="TDdgVBHhZunSGMQm2uoK-6" edge="1">
          <mxGeometry width="50" height="50" relative="1" as="geometry">
            <mxPoint x="790" y="400" as="sourcePoint" />
            <mxPoint x="840" y="350" as="targetPoint" />
            <Array as="points">
              <mxPoint x="840" y="455" />
            </Array>
          </mxGeometry>
        </mxCell>
        <mxCell id="OKDEQ-UufVDS76KuX0mW-5" value="" style="endArrow=classic;html=1;rounded=0;exitX=0;exitY=0.5;exitDx=0;exitDy=0;entryX=0.5;entryY=0;entryDx=0;entryDy=0;" parent="1" source="TDdgVBHhZunSGMQm2uoK-6" target="OKDEQ-UufVDS76KuX0mW-2" edge="1">
          <mxGeometry width="50" height="50" relative="1" as="geometry">
            <mxPoint x="785" y="560" as="sourcePoint" />
            <mxPoint x="835" y="510" as="targetPoint" />
            <Array as="points">
              <mxPoint x="670" y="290" />
            </Array>
          </mxGeometry>
        </mxCell>
        <mxCell id="OKDEQ-UufVDS76KuX0mW-7" value="" style="endArrow=classic;html=1;rounded=0;exitX=0.25;exitY=1;exitDx=0;exitDy=0;entryX=0;entryY=0.75;entryDx=0;entryDy=0;" parent="1" source="OKDEQ-UufVDS76KuX0mW-2" target="OKDEQ-UufVDS76KuX0mW-2" edge="1">
          <mxGeometry width="50" height="50" relative="1" as="geometry">
            <mxPoint x="730" y="640" as="sourcePoint" />
            <mxPoint x="780" y="590" as="targetPoint" />
            <Array as="points">
              <mxPoint x="640" y="520" />
              <mxPoint x="580" y="520" />
              <mxPoint x="580" y="485" />
            </Array>
          </mxGeometry>
        </mxCell>
        <mxCell id="OKDEQ-UufVDS76KuX0mW-8" value="Заблокировать кабину" style="text;html=1;align=center;verticalAlign=middle;resizable=0;points=[];autosize=1;strokeColor=none;fillColor=none;" parent="1" vertex="1">
          <mxGeometry x="925" y="240" width="150" height="30" as="geometry" />
        </mxCell>
        <mxCell id="OKDEQ-UufVDS76KuX0mW-9" value="Разблокировать&lt;div&gt;&amp;nbsp;кабину&lt;/div&gt;" style="text;html=1;align=center;verticalAlign=middle;resizable=0;points=[];autosize=1;strokeColor=none;fillColor=none;" parent="1" vertex="1">
          <mxGeometry x="730" y="365" width="120" height="40" as="geometry" />
        </mxCell>
        <mxCell id="OKDEQ-UufVDS76KuX0mW-10" value="Начать движение" style="text;html=1;align=center;verticalAlign=middle;resizable=0;points=[];autosize=1;strokeColor=none;fillColor=none;" parent="1" vertex="1">
          <mxGeometry x="570" y="250" width="120" height="30" as="geometry" />
        </mxCell>
        <mxCell id="OKDEQ-UufVDS76KuX0mW-12" value="Начать движение" style="text;html=1;align=center;verticalAlign=middle;resizable=0;points=[];autosize=1;strokeColor=none;fillColor=none;" parent="1" vertex="1">
          <mxGeometry x="560" y="538" width="120" height="30" as="geometry" />
        </mxCell>
        <mxCell id="OKDEQ-UufVDS76KuX0mW-13" value="Контроллер" style="text;html=1;align=center;verticalAlign=middle;resizable=0;points=[];autosize=1;strokeColor=none;fillColor=none;fontSize=32;" parent="1" vertex="1">
          <mxGeometry x="945" y="660" width="200" height="50" as="geometry" />
        </mxCell>
        <mxCell id="nOp9g0HZJuhkFJ2nj8I8-1" value="Ожидание новой задачи" style="rounded=0;whiteSpace=wrap;html=1;" parent="1" vertex="1">
          <mxGeometry x="985" y="770" width="120" height="60" as="geometry" />
        </mxCell>
        <mxCell id="nOp9g0HZJuhkFJ2nj8I8-2" value="" style="endArrow=classic;html=1;rounded=0;entryX=0.5;entryY=0;entryDx=0;entryDy=0;" parent="1" target="TDdgVBHhZunSGMQm2uoK-6" edge="1">
          <mxGeometry width="50" height="50" relative="1" as="geometry">
            <mxPoint x="810" y="200" as="sourcePoint" />
            <mxPoint x="1020" y="140" as="targetPoint" />
          </mxGeometry>
        </mxCell>
        <mxCell id="nOp9g0HZJuhkFJ2nj8I8-3" value="Обработка перемещения к этажу" style="rounded=0;whiteSpace=wrap;html=1;" parent="1" vertex="1">
          <mxGeometry x="1240" y="1040" width="120" height="60" as="geometry" />
        </mxCell>
        <mxCell id="nOp9g0HZJuhkFJ2nj8I8-4" value="Обработка высадки/посадки" style="rounded=0;whiteSpace=wrap;html=1;" parent="1" vertex="1">
          <mxGeometry x="720" y="1040" width="120" height="60" as="geometry" />
        </mxCell>
        <mxCell id="nOp9g0HZJuhkFJ2nj8I8-6" value="" style="endArrow=classic;html=1;rounded=0;exitX=1;exitY=0.5;exitDx=0;exitDy=0;entryX=0;entryY=0.5;entryDx=0;entryDy=0;" parent="1" source="nOp9g0HZJuhkFJ2nj8I8-4" target="nOp9g0HZJuhkFJ2nj8I8-3" edge="1">
          <mxGeometry width="50" height="50" relative="1" as="geometry">
            <mxPoint x="970" y="880" as="sourcePoint" />
            <mxPoint x="1020" y="830" as="targetPoint" />
          </mxGeometry>
        </mxCell>
        <mxCell id="nOp9g0HZJuhkFJ2nj8I8-7" value="" style="endArrow=classic;html=1;rounded=0;exitX=0.5;exitY=0;exitDx=0;exitDy=0;entryX=0;entryY=0.75;entryDx=0;entryDy=0;" parent="1" source="nOp9g0HZJuhkFJ2nj8I8-4" target="nOp9g0HZJuhkFJ2nj8I8-1" edge="1">
          <mxGeometry width="50" height="50" relative="1" as="geometry">
            <mxPoint x="970" y="880" as="sourcePoint" />
            <mxPoint x="1020" y="830" as="targetPoint" />
            <Array as="points">
              <mxPoint x="780" y="815" />
            </Array>
          </mxGeometry>
        </mxCell>
        <mxCell id="nOp9g0HZJuhkFJ2nj8I8-8" value="" style="endArrow=classic;html=1;rounded=0;exitX=0.75;exitY=0;exitDx=0;exitDy=0;entryX=1;entryY=0.5;entryDx=0;entryDy=0;" parent="1" source="nOp9g0HZJuhkFJ2nj8I8-3" target="nOp9g0HZJuhkFJ2nj8I8-1" edge="1">
          <mxGeometry width="50" height="50" relative="1" as="geometry">
            <mxPoint x="970" y="880" as="sourcePoint" />
            <mxPoint x="1020" y="830" as="targetPoint" />
            <Array as="points">
              <mxPoint x="1330" y="800" />
            </Array>
          </mxGeometry>
        </mxCell>
        <mxCell id="nOp9g0HZJuhkFJ2nj8I8-9" value="" style="endArrow=classic;html=1;rounded=0;exitX=0;exitY=0.75;exitDx=0;exitDy=0;entryX=1;entryY=0.75;entryDx=0;entryDy=0;" parent="1" source="nOp9g0HZJuhkFJ2nj8I8-3" target="nOp9g0HZJuhkFJ2nj8I8-4" edge="1">
          <mxGeometry width="50" height="50" relative="1" as="geometry">
            <mxPoint x="970" y="880" as="sourcePoint" />
            <mxPoint x="1020" y="830" as="targetPoint" />
          </mxGeometry>
        </mxCell>
        <mxCell id="nOp9g0HZJuhkFJ2nj8I8-11" value="Перейти в режим ожидания" style="text;html=1;align=center;verticalAlign=middle;resizable=0;points=[];autosize=1;strokeColor=none;fillColor=none;" parent="1" vertex="1">
          <mxGeometry x="1140" y="760" width="180" height="30" as="geometry" />
        </mxCell>
        <mxCell id="nOp9g0HZJuhkFJ2nj8I8-13" value="Перейти в&amp;nbsp;&lt;div&gt;режим ожидания&lt;/div&gt;" style="text;html=1;align=center;verticalAlign=middle;resizable=0;points=[];autosize=1;strokeColor=none;fillColor=none;" parent="1" vertex="1">
          <mxGeometry x="780" y="820" width="120" height="40" as="geometry" />
        </mxCell>
        <mxCell id="nOp9g0HZJuhkFJ2nj8I8-14" value="Приступить к перемещению" style="text;html=1;align=center;verticalAlign=middle;resizable=0;points=[];autosize=1;strokeColor=none;fillColor=none;" parent="1" vertex="1">
          <mxGeometry x="940" y="1040" width="180" height="30" as="geometry" />
        </mxCell>
        <mxCell id="nOp9g0HZJuhkFJ2nj8I8-15" value="Приступить к высадке/посадке" style="text;html=1;align=center;verticalAlign=middle;resizable=0;points=[];autosize=1;strokeColor=none;fillColor=none;" parent="1" vertex="1">
          <mxGeometry x="930" y="1090" width="200" height="30" as="geometry" />
        </mxCell>
        <mxCell id="nOp9g0HZJuhkFJ2nj8I8-17" value="" style="endArrow=classic;html=1;rounded=0;entryX=0.5;entryY=0;entryDx=0;entryDy=0;" parent="1" target="nOp9g0HZJuhkFJ2nj8I8-1" edge="1">
          <mxGeometry width="50" height="50" relative="1" as="geometry">
            <mxPoint x="1045" y="720" as="sourcePoint" />
            <mxPoint x="1190" y="840" as="targetPoint" />
          </mxGeometry>
        </mxCell>
        <mxCell id="nOp9g0HZJuhkFJ2nj8I8-18" value="" style="endArrow=classic;html=1;rounded=0;exitX=0.75;exitY=1;exitDx=0;exitDy=0;entryX=1;entryY=0.5;entryDx=0;entryDy=0;" parent="1" source="nOp9g0HZJuhkFJ2nj8I8-3" target="nOp9g0HZJuhkFJ2nj8I8-3" edge="1">
          <mxGeometry width="50" height="50" relative="1" as="geometry">
            <mxPoint x="1320" y="1070" as="sourcePoint" />
            <mxPoint x="1370" y="1020" as="targetPoint" />
            <Array as="points">
              <mxPoint x="1330" y="1120" />
              <mxPoint x="1380" y="1120" />
              <mxPoint x="1380" y="1070" />
            </Array>
          </mxGeometry>
        </mxCell>
        <mxCell id="nOp9g0HZJuhkFJ2nj8I8-19" value="&lt;span style=&quot;color: rgb(255, 255, 255); font-family: Helvetica; font-size: 12px; font-style: normal; font-variant-ligatures: normal; font-variant-caps: normal; font-weight: 400; letter-spacing: normal; orphans: 2; text-align: center; text-indent: 0px; text-transform: none; widows: 2; word-spacing: 0px; -webkit-text-stroke-width: 0px; white-space: nowrap; background-color: rgb(27, 29, 30); text-decoration-thickness: initial; text-decoration-style: initial; text-decoration-color: initial; display: inline !important; float: none;&quot;&gt;Приступить к перемещению&lt;/span&gt;" style="text;whiteSpace=wrap;html=1;" parent="1" vertex="1">
          <mxGeometry x="1300" y="1120" width="190" height="40" as="geometry" />
        </mxCell>
        <mxCell id="nOp9g0HZJuhkFJ2nj8I8-24" value="" style="endArrow=classic;html=1;rounded=0;exitX=1;exitY=0.75;exitDx=0;exitDy=0;entryX=0;entryY=0.75;entryDx=0;entryDy=0;" parent="1" source="OKDEQ-UufVDS76KuX0mW-2" target="OKDEQ-UufVDS76KuX0mW-1" edge="1">
          <mxGeometry width="50" height="50" relative="1" as="geometry">
            <mxPoint x="777" y="620" as="sourcePoint" />
            <mxPoint x="827" y="570" as="targetPoint" />
          </mxGeometry>
        </mxCell>
        <mxCell id="nOp9g0HZJuhkFJ2nj8I8-25" value="Заблокировать кабину" style="text;html=1;align=center;verticalAlign=middle;resizable=0;points=[];autosize=1;strokeColor=none;fillColor=none;" parent="1" vertex="1">
          <mxGeometry x="725" y="490" width="150" height="30" as="geometry" />
        </mxCell>
        <mxCell id="QnfNVXkz_dVnGW8w8GVg-1" value="Двери закрываются" style="rounded=0;whiteSpace=wrap;html=1;" vertex="1" parent="1">
          <mxGeometry x="70" y="380" width="120" height="60" as="geometry" />
        </mxCell>
        <mxCell id="QnfNVXkz_dVnGW8w8GVg-2" value="" style="endArrow=classic;html=1;rounded=0;exitX=0.5;exitY=0;exitDx=0;exitDy=0;entryX=0;entryY=0.5;entryDx=0;entryDy=0;" edge="1" parent="1" source="QnfNVXkz_dVnGW8w8GVg-1" target="4FEQCxbcR1wjujKz90j4-3">
          <mxGeometry width="50" height="50" relative="1" as="geometry">
            <mxPoint x="200" y="400" as="sourcePoint" />
            <mxPoint x="250" y="350" as="targetPoint" />
            <Array as="points">
              <mxPoint x="130" y="300" />
            </Array>
          </mxGeometry>
        </mxCell>
        <mxCell id="QnfNVXkz_dVnGW8w8GVg-3" value="Начать закрытие&amp;nbsp;&lt;div&gt;двери&lt;/div&gt;" style="text;html=1;align=center;verticalAlign=middle;resizable=0;points=[];autosize=1;strokeColor=none;fillColor=none;" vertex="1" parent="1">
          <mxGeometry x="10" y="470" width="120" height="40" as="geometry" />
        </mxCell>
        <mxCell id="QnfNVXkz_dVnGW8w8GVg-4" value="Двери открываются" style="rounded=0;whiteSpace=wrap;html=1;" vertex="1" parent="1">
          <mxGeometry x="360" y="380" width="120" height="60" as="geometry" />
        </mxCell>
        <mxCell id="QnfNVXkz_dVnGW8w8GVg-5" value="" style="endArrow=classic;html=1;rounded=0;exitX=0.5;exitY=1;exitDx=0;exitDy=0;entryX=1;entryY=0.5;entryDx=0;entryDy=0;" edge="1" parent="1" source="QnfNVXkz_dVnGW8w8GVg-4" target="4FEQCxbcR1wjujKz90j4-6">
          <mxGeometry width="50" height="50" relative="1" as="geometry">
            <mxPoint x="330" y="420" as="sourcePoint" />
            <mxPoint x="380" y="530" as="targetPoint" />
            <Array as="points">
              <mxPoint x="420" y="530" />
            </Array>
          </mxGeometry>
        </mxCell>
        <mxCell id="QnfNVXkz_dVnGW8w8GVg-6" value="" style="endArrow=classic;html=1;rounded=0;exitX=1;exitY=0.5;exitDx=0;exitDy=0;entryX=0;entryY=0.5;entryDx=0;entryDy=0;" edge="1" parent="1" source="QnfNVXkz_dVnGW8w8GVg-1" target="QnfNVXkz_dVnGW8w8GVg-4">
          <mxGeometry width="50" height="50" relative="1" as="geometry">
            <mxPoint x="330" y="420" as="sourcePoint" />
            <mxPoint x="380" y="370" as="targetPoint" />
          </mxGeometry>
        </mxCell>
        <mxCell id="QnfNVXkz_dVnGW8w8GVg-7" value="Начать открытие дверей" style="text;html=1;align=center;verticalAlign=middle;resizable=0;points=[];autosize=1;strokeColor=none;fillColor=none;" vertex="1" parent="1">
          <mxGeometry x="340" y="260" width="170" height="30" as="geometry" />
        </mxCell>
        <mxCell id="QnfNVXkz_dVnGW8w8GVg-8" value="Начать открытие дверей" style="text;html=1;align=center;verticalAlign=middle;resizable=0;points=[];autosize=1;strokeColor=none;fillColor=none;" vertex="1" parent="1">
          <mxGeometry x="190" y="375" width="170" height="30" as="geometry" />
        </mxCell>
        <mxCell id="QnfNVXkz_dVnGW8w8GVg-9" value="Обработка новой задачи" style="rounded=0;whiteSpace=wrap;html=1;" vertex="1" parent="1">
          <mxGeometry x="985" y="910" width="120" height="60" as="geometry" />
        </mxCell>
        <mxCell id="QnfNVXkz_dVnGW8w8GVg-10" value="" style="endArrow=classic;html=1;rounded=0;exitX=0.75;exitY=0;exitDx=0;exitDy=0;entryX=0;entryY=0.25;entryDx=0;entryDy=0;" edge="1" parent="1" source="nOp9g0HZJuhkFJ2nj8I8-4" target="QnfNVXkz_dVnGW8w8GVg-9">
          <mxGeometry width="50" height="50" relative="1" as="geometry">
            <mxPoint x="870" y="1000" as="sourcePoint" />
            <mxPoint x="920" y="950" as="targetPoint" />
            <Array as="points">
              <mxPoint x="810" y="925" />
            </Array>
          </mxGeometry>
        </mxCell>
        <mxCell id="QnfNVXkz_dVnGW8w8GVg-11" value="" style="endArrow=classic;html=1;rounded=0;exitX=0.25;exitY=1;exitDx=0;exitDy=0;entryX=0.25;entryY=0;entryDx=0;entryDy=0;" edge="1" parent="1" source="nOp9g0HZJuhkFJ2nj8I8-1" target="QnfNVXkz_dVnGW8w8GVg-9">
          <mxGeometry width="50" height="50" relative="1" as="geometry">
            <mxPoint x="1020" y="970" as="sourcePoint" />
            <mxPoint x="1070" y="920" as="targetPoint" />
          </mxGeometry>
        </mxCell>
        <mxCell id="QnfNVXkz_dVnGW8w8GVg-12" value="" style="endArrow=classic;html=1;rounded=0;entryX=1;entryY=0.25;entryDx=0;entryDy=0;exitX=0.25;exitY=0;exitDx=0;exitDy=0;" edge="1" parent="1" source="nOp9g0HZJuhkFJ2nj8I8-3" target="QnfNVXkz_dVnGW8w8GVg-9">
          <mxGeometry width="50" height="50" relative="1" as="geometry">
            <mxPoint x="1240" y="1040" as="sourcePoint" />
            <mxPoint x="1225" y="940" as="targetPoint" />
            <Array as="points">
              <mxPoint x="1270" y="925" />
            </Array>
          </mxGeometry>
        </mxCell>
        <mxCell id="QnfNVXkz_dVnGW8w8GVg-13" value="" style="endArrow=classic;html=1;rounded=0;exitX=0.75;exitY=0;exitDx=0;exitDy=0;entryX=0.75;entryY=1;entryDx=0;entryDy=0;" edge="1" parent="1" source="QnfNVXkz_dVnGW8w8GVg-9" target="nOp9g0HZJuhkFJ2nj8I8-1">
          <mxGeometry width="50" height="50" relative="1" as="geometry">
            <mxPoint x="960" y="1010" as="sourcePoint" />
            <mxPoint x="1060" y="980" as="targetPoint" />
          </mxGeometry>
        </mxCell>
        <mxCell id="QnfNVXkz_dVnGW8w8GVg-14" value="" style="endArrow=classic;html=1;rounded=0;exitX=0.25;exitY=1;exitDx=0;exitDy=0;entryX=1;entryY=0;entryDx=0;entryDy=0;" edge="1" parent="1" source="QnfNVXkz_dVnGW8w8GVg-9" target="nOp9g0HZJuhkFJ2nj8I8-4">
          <mxGeometry width="50" height="50" relative="1" as="geometry">
            <mxPoint x="1020" y="1020" as="sourcePoint" />
            <mxPoint x="1070" y="970" as="targetPoint" />
            <Array as="points">
              <mxPoint x="1015" y="1000" />
              <mxPoint x="840" y="1000" />
            </Array>
          </mxGeometry>
        </mxCell>
        <mxCell id="QnfNVXkz_dVnGW8w8GVg-15" value="" style="endArrow=classic;html=1;rounded=0;exitX=0.75;exitY=1;exitDx=0;exitDy=0;entryX=0;entryY=0;entryDx=0;entryDy=0;" edge="1" parent="1" source="QnfNVXkz_dVnGW8w8GVg-9" target="nOp9g0HZJuhkFJ2nj8I8-3">
          <mxGeometry width="50" height="50" relative="1" as="geometry">
            <mxPoint x="1220" y="970" as="sourcePoint" />
            <mxPoint x="1270" y="920" as="targetPoint" />
            <Array as="points">
              <mxPoint x="1075" y="1000" />
              <mxPoint x="1240" y="1000" />
            </Array>
          </mxGeometry>
        </mxCell>
        <mxCell id="QnfNVXkz_dVnGW8w8GVg-16" value="Обработать новую задачу" style="text;html=1;align=center;verticalAlign=middle;resizable=0;points=[];autosize=1;strokeColor=none;fillColor=none;" vertex="1" parent="1">
          <mxGeometry x="785" y="888" width="170" height="30" as="geometry" />
        </mxCell>
        <mxCell id="QnfNVXkz_dVnGW8w8GVg-17" value="Обработать&amp;nbsp;&lt;div&gt;новую задачу&lt;/div&gt;" style="text;html=1;align=center;verticalAlign=middle;resizable=0;points=[];autosize=1;strokeColor=none;fillColor=none;" vertex="1" parent="1">
          <mxGeometry x="925" y="848" width="100" height="40" as="geometry" />
        </mxCell>
        <mxCell id="QnfNVXkz_dVnGW8w8GVg-19" value="Приступить к высадке/посадке" style="text;html=1;align=center;verticalAlign=middle;resizable=0;points=[];autosize=1;strokeColor=none;fillColor=none;" vertex="1" parent="1">
          <mxGeometry x="820" y="970" width="200" height="30" as="geometry" />
        </mxCell>
        <mxCell id="QnfNVXkz_dVnGW8w8GVg-20" value="Приступить к перемещению" style="text;html=1;align=center;verticalAlign=middle;resizable=0;points=[];autosize=1;strokeColor=none;fillColor=none;" vertex="1" parent="1">
          <mxGeometry x="1075" y="970" width="180" height="30" as="geometry" />
        </mxCell>
        <mxCell id="QnfNVXkz_dVnGW8w8GVg-21" value="Обработать новую задачу" style="text;html=1;align=center;verticalAlign=middle;resizable=0;points=[];autosize=1;strokeColor=none;fillColor=none;" vertex="1" parent="1">
          <mxGeometry x="1120" y="888" width="170" height="30" as="geometry" />
        </mxCell>
        <mxCell id="QnfNVXkz_dVnGW8w8GVg-22" value="Перейти в&amp;nbsp;&lt;div&gt;режим ожидания&lt;/div&gt;" style="text;html=1;align=center;verticalAlign=middle;resizable=0;points=[];autosize=1;strokeColor=none;fillColor=none;" vertex="1" parent="1">
          <mxGeometry x="1075" y="848" width="120" height="40" as="geometry" />
        </mxCell>
        <mxCell id="QnfNVXkz_dVnGW8w8GVg-23" value="" style="endArrow=classic;html=1;rounded=0;exitX=0;exitY=1;exitDx=0;exitDy=0;entryX=0;entryY=0.5;entryDx=0;entryDy=0;" edge="1" parent="1" source="QnfNVXkz_dVnGW8w8GVg-9" target="QnfNVXkz_dVnGW8w8GVg-9">
          <mxGeometry width="50" height="50" relative="1" as="geometry">
            <mxPoint x="950" y="968" as="sourcePoint" />
            <mxPoint x="1000" y="918" as="targetPoint" />
            <Array as="points">
              <mxPoint x="950" y="970" />
              <mxPoint x="950" y="940" />
            </Array>
          </mxGeometry>
        </mxCell>
        <mxCell id="QnfNVXkz_dVnGW8w8GVg-24" value="Обработать&amp;nbsp;&lt;div&gt;новую задачу&lt;/div&gt;" style="text;html=1;align=center;verticalAlign=middle;resizable=0;points=[];autosize=1;strokeColor=none;fillColor=none;" vertex="1" parent="1">
          <mxGeometry x="840" y="930" width="100" height="40" as="geometry" />
        </mxCell>
        <mxCell id="QnfNVXkz_dVnGW8w8GVg-25" value="" style="endArrow=classic;html=1;rounded=0;exitX=1;exitY=0.75;exitDx=0;exitDy=0;entryX=1;entryY=0.25;entryDx=0;entryDy=0;" edge="1" parent="1" source="OKDEQ-UufVDS76KuX0mW-1" target="OKDEQ-UufVDS76KuX0mW-1">
          <mxGeometry width="50" height="50" relative="1" as="geometry">
            <mxPoint x="1040" y="480" as="sourcePoint" />
            <mxPoint x="1090" y="430" as="targetPoint" />
            <Array as="points">
              <mxPoint x="1040" y="485" />
              <mxPoint x="1040" y="455" />
            </Array>
          </mxGeometry>
        </mxCell>
        <mxCell id="QnfNVXkz_dVnGW8w8GVg-26" value="Заблокировать&amp;nbsp;&lt;div&gt;кабину&lt;/div&gt;" style="text;html=1;align=center;verticalAlign=middle;resizable=0;points=[];autosize=1;strokeColor=none;fillColor=none;" vertex="1" parent="1">
          <mxGeometry x="1040" y="450" width="110" height="40" as="geometry" />
        </mxCell>
      </root>
    </mxGraphModel>
  </diagram>
</mxfile>
